<svg data-v-423bf9ae="" xmlns="http://www.w3.org/2000/svg" viewBox="0 0 471.42035785301374 60" class="font"><!----><!----><!----><g data-v-423bf9ae="" id="7e4afb90-3bdc-4a95-8221-cb4e48a06bc3" fill="black" transform="matrix(5.758157347474804,0,0,5.758157347474804,-3.6276445402956767,-17.965450265152576)"><path d="M0.63 8.43L0.63 8.43L0.63 8.43Q0.63 6.04 1.81 4.68L1.81 4.68L1.81 4.68Q3.00 3.32 5.22 3.32L5.22 3.32L5.22 3.32Q6.52 3.32 7.37 3.76L7.37 3.76L7.37 3.76Q8.22 4.20 8.59 4.97L8.59 4.97L8.59 4.97Q8.78 5.37 8.52 5.52L8.52 5.52L7.98 5.83L7.98 5.83Q7.71 5.99 7.50 5.57L7.50 5.57L7.50 5.57Q7.27 5.14 6.76 4.76L6.76 4.76L6.76 4.76Q6.25 4.39 5.29 4.39L5.29 4.39L5.29 4.39Q3.58 4.39 2.81 5.45L2.81 5.45L2.81 5.45Q2.03 6.51 2.03 8.43L2.03 8.43L2.03 8.43Q2.03 10.34 2.81 11.41L2.81 11.41L2.81 11.41Q3.58 12.47 5.29 12.47L5.29 12.47L5.29 12.47Q6.28 12.47 6.87 12.02L6.87 12.02L6.87 12.02Q7.46 11.57 7.72 11.07L7.72 11.07L7.72 11.07Q7.94 10.68 8.22 10.83L8.22 10.83L8.78 11.16L8.78 11.16Q9.03 11.30 8.83 11.70L8.83 11.70L8.83 11.70Q8.42 12.49 7.51 13.01L7.51 13.01L7.51 13.01Q6.60 13.54 5.22 13.54L5.22 13.54L5.22 13.54Q3.00 13.54 1.81 12.18L1.81 12.18L1.81 12.18Q0.63 10.82 0.63 8.43ZM11.45 13.33L10.86 13.33L10.86 13.33Q10.55 13.33 10.55 13.02L10.55 13.02L10.55 6.46L10.55 6.46Q10.55 6.15 10.86 6.15L10.86 6.15L11.44 6.15L11.44 6.15Q11.74 6.15 11.74 6.46L11.74 6.46L11.74 7.28L11.77 7.28L11.77 7.28Q12.10 6.67 12.54 6.35L12.54 6.35L12.54 6.35Q12.99 6.04 13.65 6.04L13.65 6.04L13.65 6.04Q14.09 6.04 14.27 6.11L14.27 6.11L14.27 6.11Q14.42 6.17 14.38 6.32L14.38 6.32L14.23 6.88L14.23 6.88Q14.19 7 14.05 6.97L14.05 6.97L14.05 6.97Q13.81 6.92 13.60 6.92L13.60 6.92L13.60 6.92Q12.80 6.92 12.28 7.65L12.28 7.65L12.28 7.65Q11.76 8.37 11.76 9.61L11.76 9.61L11.76 13.02L11.76 13.02Q11.76 13.33 11.45 13.33L11.45 13.33ZM15.10 11.42L15.10 11.42L15.10 11.42Q15.10 10.20 16.24 9.63L16.24 9.63L16.24 9.63Q17.38 9.06 19.64 8.97L19.64 8.97L19.64 8.50L19.64 8.50Q19.64 7.86 19.35 7.39L19.35 7.39L19.35 7.39Q19.06 6.92 18.20 6.92L18.20 6.92L18.20 6.92Q17.65 6.92 17.32 7.03L17.32 7.03L17.32 7.03Q16.99 7.14 16.72 7.31L16.72 7.31L16.72 7.31Q16.45 7.49 16.21 7.76L16.21 7.76L16.21 7.76Q16.02 7.96 15.86 7.78L15.86 7.78L15.50 7.37L15.50 7.37Q15.35 7.20 15.61 6.96L15.61 6.96L15.61 6.96Q15.97 6.62 16.31 6.45L16.31 6.45L16.31 6.45Q16.65 6.28 17.16 6.16L17.16 6.16L17.16 6.16Q17.67 6.04 18.20 6.04L18.20 6.04L18.20 6.04Q19.63 6.04 20.23 6.77L20.23 6.77L20.23 6.77Q20.84 7.51 20.84 8.78L20.84 8.78L20.84 13.02L20.84 13.02Q20.84 13.33 20.54 13.33L20.54 13.33L19.92 13.33L19.92 13.33Q19.65 13.33 19.65 13.02L19.65 13.02L19.65 12.69L19.64 12.69L19.64 12.69Q19.10 13.11 18.58 13.28L18.58 13.28L18.58 13.28Q18.07 13.45 17.43 13.45L17.43 13.45L17.43 13.45Q16.31 13.45 15.71 12.91L15.71 12.91L15.71 12.91Q15.10 12.37 15.10 11.42ZM16.34 11.44L16.34 11.44L16.34 11.44Q16.34 11.87 16.52 12.12L16.52 12.12L16.52 12.12Q16.70 12.38 17.01 12.45L17.01 12.45L17.01 12.45Q17.33 12.52 17.67 12.52L17.67 12.52L17.67 12.52Q18.20 12.52 18.67 12.42L18.67 12.42L18.67 12.42Q19.14 12.32 19.64 11.88L19.64 11.88L19.64 9.86L19.64 9.86Q18.26 9.97 17.67 10.11L17.67 10.11L17.67 10.11Q17.08 10.26 16.71 10.62L16.71 10.62L16.71 10.62Q16.34 10.98 16.34 11.44ZM22.39 9.74L22.39 9.74L22.39 9.74Q22.39 8.27 23.11 7.15L23.11 7.15L23.11 7.15Q23.82 6.04 25.18 6.04L25.18 6.04L25.18 6.04Q25.97 6.04 26.44 6.30L26.44 6.30L26.44 6.30Q26.91 6.56 27.29 7.01L27.29 7.01L27.30 7.01L27.30 7.01Q27.29 6.80 27.29 6.59L27.29 6.59L27.29 3.55L27.29 3.55Q27.29 3.24 27.60 3.24L27.60 3.24L28.18 3.24L28.18 3.24Q28.49 3.24 28.49 3.55L28.49 3.55L28.49 13.02L28.49 13.02Q28.49 13.33 28.18 13.33L28.18 13.33L27.61 13.33L27.61 13.33Q27.36 13.33 27.34 13.02L27.34 13.02L27.30 12.48L27.29 12.48L27.29 12.48Q26.91 12.93 26.44 13.19L26.44 13.19L26.44 13.19Q25.97 13.45 25.18 13.45L25.18 13.45L25.18 13.45Q23.82 13.45 23.11 12.33L23.11 12.33L23.11 12.33Q22.39 11.21 22.39 9.74ZM23.67 9.74L23.67 9.74L23.67 9.74Q23.67 11.00 24.10 11.78L24.10 11.78L24.10 11.78Q24.53 12.56 25.57 12.56L25.57 12.56L25.57 12.56Q26.31 12.56 26.80 12.06L26.80 12.06L26.80 12.06Q27.29 11.55 27.29 10.53L27.29 10.53L27.29 8.96L27.29 8.96Q27.29 7.93 26.80 7.43L26.80 7.43L26.80 7.43Q26.31 6.92 25.57 6.92L25.57 6.92L25.57 6.92Q24.53 6.92 24.10 7.70L24.10 7.70L24.10 7.70Q23.67 8.48 23.67 9.74ZM31.33 13.33L30.74 13.33L30.74 13.33Q30.43 13.33 30.43 13.02L30.43 13.02L30.43 4.49L30.43 4.49Q30.43 4.35 30.50 4.23L30.50 4.23L30.98 3.36L30.98 3.36Q31.11 3.12 31.19 3.12L31.19 3.12L31.43 3.12L31.43 3.12Q31.64 3.12 31.64 3.36L31.64 3.36L31.64 13.02L31.64 13.02Q31.64 13.33 31.33 13.33L31.33 13.33ZM33.19 9.74L33.19 9.74L33.19 9.74Q33.19 8.05 34.04 7.04L34.04 7.04L34.04 7.04Q34.88 6.04 36.46 6.04L36.46 6.04L36.46 6.04Q37.78 6.04 38.64 6.96L38.64 6.96L38.64 6.96Q39.50 7.88 39.50 9.89L39.50 9.89L39.50 9.89Q39.50 10.20 39.22 10.20L39.22 10.20L34.46 10.20L34.46 10.20Q34.58 11.52 35.17 12.03L35.17 12.03L35.17 12.03Q35.77 12.55 36.52 12.55L36.52 12.55L36.52 12.55Q37.31 12.55 37.73 12.28L37.73 12.28L37.73 12.28Q38.16 12.02 38.36 11.76L38.36 11.76L38.36 11.76Q38.58 11.47 38.78 11.65L38.78 11.65L39.18 12.00L39.18 12.00Q39.34 12.13 39.18 12.37L39.18 12.37L39.18 12.37Q39.05 12.57 38.44 13.01L38.44 13.01L38.44 13.01Q37.83 13.45 36.52 13.45L36.52 13.45L36.52 13.45Q34.81 13.45 34.00 12.44L34.00 12.44L34.00 12.44Q33.19 11.44 33.19 9.74ZM34.43 9.31L34.43 9.31L38.29 9.31L38.29 9.31Q38.27 8.35 37.80 7.63L37.80 7.63L37.80 7.63Q37.34 6.91 36.44 6.91L36.44 6.91L36.44 6.91Q35.64 6.91 35.09 7.44L35.09 7.44L35.09 7.44Q34.54 7.97 34.43 9.31ZM40.68 12.66L40.68 12.66L40.68 12.66Q40.47 12.46 40.59 12.29L40.59 12.29L40.90 11.86L40.90 11.86Q41.05 11.66 41.34 11.88L41.34 11.88L41.34 11.88Q41.75 12.19 42.24 12.37L42.24 12.37L42.24 12.37Q42.74 12.56 43.37 12.56L43.37 12.56L43.37 12.56Q43.75 12.56 44.04 12.47L44.04 12.47L44.04 12.47Q44.34 12.37 44.56 12.12L44.56 12.12L44.56 12.12Q44.78 11.87 44.78 11.44L44.78 11.44L44.78 11.44Q44.78 11.20 44.68 10.98L44.68 10.98L44.68 10.98Q44.57 10.76 44.35 10.63L44.35 10.63L44.35 10.63Q44.13 10.49 43.91 10.42L43.91 10.42L43.91 10.42Q43.57 10.29 43.22 10.20L43.22 10.20L43.22 10.20Q42.88 10.12 42.31 9.94L42.31 9.94L42.31 9.94Q41.94 9.82 41.60 9.61L41.60 9.61L41.60 9.61Q41.27 9.39 41.02 9.02L41.02 9.02L41.02 9.02Q40.77 8.65 40.77 8.00L40.77 8.00L40.77 8.00Q40.77 7.34 41.17 6.86L41.17 6.86L41.17 6.86Q41.58 6.38 42.18 6.21L42.18 6.21L42.18 6.21Q42.79 6.04 43.37 6.04L43.37 6.04L43.37 6.04Q44.21 6.04 44.73 6.23L44.73 6.23L44.73 6.23Q45.25 6.43 45.62 6.69L45.62 6.69L45.62 6.69Q45.84 6.85 45.68 7.05L45.68 7.05L45.38 7.46L45.38 7.46Q45.23 7.66 44.93 7.45L44.93 7.45L44.93 7.45Q44.68 7.27 44.21 7.12L44.21 7.12L44.21 7.12Q43.75 6.96 43.40 6.96L43.40 6.96L43.40 6.96Q42.97 6.96 42.66 7.05L42.66 7.05L42.66 7.05Q42.36 7.15 42.16 7.38L42.16 7.38L42.16 7.38Q41.97 7.62 41.97 7.93L41.97 7.93L41.97 7.93Q41.97 8.17 42.05 8.36L42.05 8.36L42.05 8.36Q42.12 8.54 42.33 8.70L42.33 8.70L42.33 8.70Q42.53 8.86 42.90 8.96L42.90 8.96L42.90 8.96Q43.48 9.11 43.95 9.23L43.95 9.23L43.95 9.23Q44.43 9.35 44.81 9.53L44.81 9.53L44.81 9.53Q45.31 9.76 45.58 10.04L45.58 10.04L45.58 10.04Q45.85 10.32 45.95 10.65L45.95 10.65L45.95 10.65Q46.05 10.97 46.05 11.37L46.05 11.37L46.05 11.37Q46.05 12.10 45.62 12.61L45.62 12.61L45.62 12.61Q45.19 13.11 44.65 13.28L44.65 13.28L44.65 13.28Q44.12 13.45 43.37 13.45L43.37 13.45L43.37 13.45Q42.35 13.45 41.62 13.16L41.62 13.16L41.62 13.16Q40.89 12.87 40.68 12.66ZM48.70 13.33L48.07 13.33L48.07 13.33Q47.73 13.33 47.73 12.95L47.73 12.95L47.73 3.90L47.73 3.90Q47.73 3.53 48.07 3.53L48.07 3.53L48.70 3.53L48.70 3.53Q49.04 3.53 49.04 3.90L49.04 3.90L49.04 7.67L53.81 7.67L53.81 3.90L53.81 3.90Q53.81 3.53 54.15 3.53L54.15 3.53L54.78 3.53L54.78 3.53Q55.13 3.53 55.13 3.90L55.13 3.90L55.13 12.95L55.13 12.95Q55.13 13.33 54.78 13.33L54.78 13.33L54.15 13.33L54.15 13.33Q53.81 13.33 53.81 12.95L53.81 12.95L53.81 8.79L49.04 8.79L49.04 12.95L49.04 12.95Q49.04 13.33 48.70 13.33L48.70 13.33ZM56.87 9.74L56.87 9.74L56.87 9.74Q56.87 8.13 57.72 7.09L57.72 7.09L57.72 7.09Q58.57 6.04 60.21 6.04L60.21 6.04L60.21 6.04Q61.85 6.04 62.70 7.09L62.70 7.09L62.70 7.09Q63.55 8.13 63.55 9.74L63.55 9.74L63.55 9.74Q63.55 11.35 62.70 12.40L62.70 12.40L62.70 12.40Q61.85 13.45 60.21 13.45L60.21 13.45L60.21 13.45Q58.57 13.45 57.72 12.40L57.72 12.40L57.72 12.40Q56.87 11.35 56.87 9.74ZM58.14 9.74L58.14 9.74L58.14 9.74Q58.14 11.18 58.71 11.87L58.71 11.87L58.71 11.87Q59.27 12.56 60.21 12.56L60.21 12.56L60.21 12.56Q61.15 12.56 61.71 11.87L61.71 11.87L61.71 11.87Q62.28 11.18 62.28 9.74L62.28 9.74L62.28 9.74Q62.28 8.31 61.71 7.62L61.71 7.62L61.71 7.62Q61.15 6.92 60.21 6.92L60.21 6.92L60.21 6.92Q59.27 6.92 58.71 7.62L58.71 7.62L58.71 7.62Q58.14 8.31 58.14 9.74ZM66.00 13.33L65.41 13.33L65.41 13.33Q65.11 13.33 65.11 13.02L65.11 13.02L65.11 6.46L65.11 6.46Q65.11 6.15 65.41 6.15L65.41 6.15L65.99 6.15L65.99 6.15Q66.29 6.15 66.29 6.46L66.29 6.46L66.29 7.01L66.32 7.01L66.32 7.01Q66.77 6.51 67.29 6.28L67.29 6.28L67.29 6.28Q67.81 6.04 68.28 6.04L68.28 6.04L68.28 6.04Q69.17 6.04 69.64 6.48L69.64 6.48L69.64 6.48Q70.12 6.92 70.25 7.36L70.25 7.36L70.28 7.36L70.28 7.36Q70.66 6.80 71.23 6.42L71.23 6.42L71.23 6.42Q71.80 6.04 72.45 6.04L72.45 6.04L72.45 6.04Q73.54 6.04 74.09 6.74L74.09 6.74L74.09 6.74Q74.65 7.44 74.65 8.65L74.65 8.65L74.65 13.02L74.65 13.02Q74.65 13.33 74.34 13.33L74.34 13.33L73.75 13.33L73.75 13.33Q73.45 13.33 73.45 13.02L73.45 13.02L73.45 9.05L73.45 9.05Q73.45 7.71 73.11 7.32L73.11 7.32L73.11 7.32Q72.78 6.92 72.08 6.92L72.08 6.92L72.08 6.92Q71.39 6.92 70.94 7.51L70.94 7.51L70.94 7.51Q70.48 8.09 70.48 9.27L70.48 9.27L70.48 13.02L70.48 13.02Q70.48 13.33 70.17 13.33L70.17 13.33L69.58 13.33L69.58 13.33Q69.28 13.33 69.28 13.02L69.28 13.02L69.28 9.05L69.28 9.05Q69.28 7.71 68.94 7.32L68.94 7.32L68.94 7.32Q68.61 6.92 67.91 6.92L67.91 6.92L67.91 6.92Q67.22 6.92 66.77 7.45L66.77 7.45L66.77 7.45Q66.31 7.98 66.31 9.27L66.31 9.27L66.31 13.02L66.31 13.02Q66.31 13.33 66.00 13.33L66.00 13.33ZM76.19 9.74L76.19 9.74L76.19 9.74Q76.19 8.05 77.03 7.04L77.03 7.04L77.03 7.04Q77.88 6.04 79.46 6.04L79.46 6.04L79.46 6.04Q80.77 6.04 81.64 6.96L81.64 6.96L81.64 6.96Q82.50 7.88 82.50 9.89L82.50 9.89L82.50 9.89Q82.50 10.20 82.22 10.20L82.22 10.20L77.46 10.20L77.46 10.20Q77.57 11.52 78.17 12.03L78.17 12.03L78.17 12.03Q78.76 12.55 79.52 12.55L79.52 12.55L79.52 12.55Q80.31 12.55 80.73 12.28L80.73 12.28L80.73 12.28Q81.16 12.02 81.35 11.76L81.35 11.76L81.35 11.76Q81.57 11.47 81.78 11.65L81.78 11.65L82.18 12.00L82.18 12.00Q82.34 12.13 82.18 12.37L82.18 12.37L82.18 12.37Q82.05 12.57 81.44 13.01L81.44 13.01L81.44 13.01Q80.83 13.45 79.52 13.45L79.52 13.45L79.52 13.45Q77.81 13.45 77.00 12.44L77.00 12.44L77.00 12.44Q76.19 11.44 76.19 9.74ZM77.43 9.31L77.43 9.31L81.29 9.31L81.29 9.31Q81.27 8.35 80.80 7.63L80.80 7.63L80.80 7.63Q80.34 6.91 79.43 6.91L79.43 6.91L79.43 6.91Q78.64 6.91 78.09 7.44L78.09 7.44L78.09 7.44Q77.53 7.97 77.43 9.31Z"></path></g><!----><!----></svg>